<svg width="96" height="31" viewBox="0 0 96 31" fill="none" xmlns="http://www.w3.org/2000/svg">
<g clip-path="url(#clip0_2001_719)">
<path d="M0.599338 22.0596L0.620743 7.93231H5.90776C9.80346 7.93231 13.5707 10.0942 13.5707 14.8461C13.5707 19.3197 10.1031 22.0596 5.82214 22.0596H0.599338ZM3.61744 19.4482H5.90776C8.79743 19.4482 10.5312 17.4361 10.5526 15.0173C10.574 12.4059 8.88305 10.5223 6.01479 10.5223H3.61744V19.4482ZM19.6093 22.2736C16.7624 22.295 14.7718 20.3044 14.7718 16.8582V11.2073H17.7898V16.8582C17.7898 18.6776 18.8173 19.8335 20.5297 19.8121C22.2849 19.7692 23.3337 18.4421 23.3337 16.5371V11.2073H26.4588V22.0596H23.4408V19.384C23.0127 21.3532 21.2146 22.2522 19.6093 22.2736Z" fill="#2F2B2C"/>
<path d="M31.6374 22.0596V7.93231H37.3525C41.762 7.93231 42.8536 10.3725 42.8536 12.4916C42.8536 14.5464 42.0402 16.4087 39.5573 16.8154L38.9365 16.8368L42.1044 22.0596H38.7653L35.6616 16.8368H34.6341V22.0596H31.6374ZM34.6341 14.3538H37.3525C38.9579 14.3538 39.8355 13.8187 39.8355 12.4916C39.8355 11.3143 39.1292 10.5223 37.3311 10.5223H34.6341V14.3538ZM49.2286 22.2736C46.1891 22.2736 43.3851 20.0903 43.3851 16.6655C43.3851 12.9197 46.1891 10.9932 49.2286 10.9932C52.2253 10.9932 54.6012 12.8983 54.9223 16.1518C54.9651 16.4943 54.9651 16.9224 54.9223 17.2863H46.2319C46.446 18.8274 47.8159 19.8121 49.2286 19.8121C50.3631 19.8335 51.4333 19.3411 51.9684 18.4207L54.216 19.5552C53.2313 21.2462 51.3691 22.2736 49.2286 22.2736ZM46.446 15.6381L52.0969 15.6167C51.8186 14.2468 50.5343 13.3906 49.2286 13.412C47.9657 13.412 46.7242 14.2468 46.446 15.6381ZM61.4873 22.2736C58.405 22.295 56.136 19.8121 56.136 16.6869C56.136 13.0909 58.3836 10.9718 61.3375 10.9932C63.1355 11.0146 64.9763 11.9778 65.5328 13.7759V11.2073H68.5295V22.0596H65.5328V19.4482C65.0191 21.1392 63.2639 22.2522 61.4873 22.2736ZM59.1327 16.6655C59.1327 18.5278 60.5669 19.8121 62.2793 19.7692C63.9489 19.7478 65.4044 18.5063 65.4044 16.6655C65.4044 14.6749 63.9703 13.4762 62.2793 13.4548C60.5455 13.4334 59.1327 14.6107 59.1327 16.6655ZM69.7232 22.0596V7.93231H72.7413V22.0596H69.7232ZM82.2936 21.7813C79.4253 22.9586 75.5938 21.7599 75.5938 17.8428V13.6688H73.9456V11.0788C75.8293 11.0574 75.5938 9.98718 75.5938 7.93231H78.5905L78.6119 11.0788H81.523V13.6688H78.5905V17.4575C78.5905 19.2555 80.1317 19.8763 81.8226 19.2127L82.2936 21.7813ZM84.7917 22.4663C85.3055 23.087 86.5684 23.2368 87.0607 22.2094L87.6172 21.0321L83.4218 11.2073H86.4185L89.1155 18.7204L92.1765 11.2073H95.1731L89.5008 22.8516C88.0239 25.9125 85.0272 25.9339 83.1222 24.2001L84.7917 22.4663Z" fill="#2F2B2C"/>
</g>
<defs>
<clipPath id="clip0_2001_719">
<rect width="96" height="31" fill="white"/>
</clipPath>
</defs>
</svg>
